HIERARCHY
ROOT __0
{
	OFFSET 0.0 0.0 0.0
	CHANNELS 0
	JOINT sacroiliac
	{
		OFFSET 0.000000 0.972412 0.000000
		CHANNELS 6 Xposition Yposition Zposition Xrotation Yrotation Zrotation
		JOINT l_hip
		{
			OFFSET 0.126594 0.002634 0.000175
			CHANNELS 6 Xposition Yposition Zposition Xrotation Yrotation Zrotation
			JOINT l_knee
			{
				OFFSET -0.000561 -0.414592 -0.070925
				CHANNELS 6 Xposition Yposition Zposition Xrotation Yrotation Zrotation
				JOINT l_talocrural
				{
					OFFSET -0.004513 -0.489355 -0.009090
					CHANNELS 6 Xposition Yposition Zposition Xrotation Yrotation Zrotation
					JOINT l_metatarsophalangeal_2
					{
						OFFSET 0.018934 -0.027418 0.102540
						CHANNELS 6 Xposition Yposition Zposition Xrotation Yrotation Zrotation
						JOINT l_tarsal_distal_interphalangeal_2
						{
							OFFSET 0.014593 -0.012395 0.067201
							CHANNELS 6 Xposition Yposition Zposition Xrotation Yrotation Zrotation
							End Site
							{
								OFFSET 0.005509 0.069296 0.007100
							}
						}
					}
				}
			}
		}
		JOINT r_hip
		{
			OFFSET -0.108775 0.005424 0.001188
			CHANNELS 6 Xposition Yposition Zposition Xrotation Yrotation Zrotation
			JOINT r_knee
			{
				OFFSET -0.027330 -0.401027 -0.031165
				CHANNELS 6 Xposition Yposition Zposition Xrotation Yrotation Zrotation
				JOINT r_talocrural
				{
					OFFSET -0.020725 -0.483416 -0.020023
					CHANNELS 6 Xposition Yposition Zposition Xrotation Yrotation Zrotation
					JOINT r_metatarsophalangeal_2
					{
						OFFSET -0.017086 -0.051202 0.081728
						CHANNELS 6 Xposition Yposition Zposition Xrotation Yrotation Zrotation
						JOINT r_tarsal_distal_interphalangeal_2
						{
							OFFSET -0.012977 -0.012548 0.108326
							CHANNELS 6 Xposition Yposition Zposition Xrotation Yrotation Zrotation
							End Site
							{
								OFFSET -0.000443 0.109710 -0.004882
							}
						}
					}
				}
			}
		}
	}
	JOINT vl5
	{
		OFFSET 0.001334 1.079675 -0.005744
		CHANNELS 6 Xposition Yposition Zposition Xrotation Yrotation Zrotation
		JOINT vl3
		{
			OFFSET 0.000045 0.089023 -0.004977
			CHANNELS 6 Xposition Yposition Zposition Xrotation Yrotation Zrotation
			JOINT vt12
			{
				OFFSET 0.000601 0.088396 -0.004935
				CHANNELS 6 Xposition Yposition Zposition Xrotation Yrotation Zrotation
				JOINT vt9
				{
					OFFSET 0.000627 0.088486 -0.000769
					CHANNELS 6 Xposition Yposition Zposition Xrotation Yrotation Zrotation
					JOINT vt4
					{
						OFFSET -0.000968 0.091389 -0.011976
						CHANNELS 6 Xposition Yposition Zposition Xrotation Yrotation Zrotation
						JOINT vc7
						{
							OFFSET -0.001250 0.114399 -0.028139
							CHANNELS 6 Xposition Yposition Zposition Xrotation Yrotation Zrotation
							JOINT vc3
							{
								OFFSET -0.002190 0.068824 0.002309
								CHANNELS 6 Xposition Yposition Zposition Xrotation Yrotation Zrotation
								JOINT skullbase
								{
									OFFSET 0.000063 0.201169 0.012987
									CHANNELS 6 Xposition Yposition Zposition Xrotation Yrotation Zrotation
									End Site
									{
										OFFSET -0.007141 0.201450 0.002129
									}
								}
							}
						}
						JOINT l_sternoclavicular
						{
							OFFSET 0.090029 0.021834 -0.023574
							CHANNELS 6 Xposition Yposition Zposition Xrotation Yrotation Zrotation
							JOINT l_shoulder
							{
								OFFSET 0.169796 -0.011966 0.000593
								CHANNELS 6 Xposition Yposition Zposition Xrotation Yrotation Zrotation
								JOINT l_elbow
								{
									OFFSET 0.019196 -0.242157 -0.026832
									CHANNELS 6 Xposition Yposition Zposition Xrotation Yrotation Zrotation
									JOINT l_radiocarpal
									{
										OFFSET 0.040054 -0.238662 0.017463
										CHANNELS 6 Xposition Yposition Zposition Xrotation Yrotation Zrotation
										JOINT l_carpometacarpal_1
										{
											OFFSET -0.007333 -0.009378 0.025565
											CHANNELS 6 Xposition Yposition Zposition Xrotation Yrotation Zrotation
											JOINT l_metacarpophalangeal_1
											{
												OFFSET -0.016236 -0.026544 0.013427
												CHANNELS 6 Xposition Yposition Zposition Xrotation Yrotation Zrotation
												JOINT l_carpal_interphalangeal_1
												{
													OFFSET -0.001591 -0.037644 0.007952
													CHANNELS 6 Xposition Yposition Zposition Xrotation Yrotation Zrotation
													End Site
													{
														OFFSET -0.013839 0.031036 0.018114
													}
												}
											}
										}
										JOINT l_carpometacarpal_2
										{
											OFFSET 0.002204 -0.018555 0.018525
											CHANNELS 6 Xposition Yposition Zposition Xrotation Yrotation Zrotation
											JOINT l_metacarpophalangeal_2
											{
												OFFSET 0.018688 -0.056911 0.006086
												CHANNELS 6 Xposition Yposition Zposition Xrotation Yrotation Zrotation
												JOINT l_carpal_proximal_interphalangeal_2
												{
													OFFSET 0.006680 -0.041880 -0.005096
													CHANNELS 6 Xposition Yposition Zposition Xrotation Yrotation Zrotation
													JOINT l_carpal_distal_interphalangeal_2
													{
														OFFSET 0.003517 -0.028563 -0.003551
														CHANNELS 6 Xposition Yposition Zposition Xrotation Yrotation Zrotation
														End Site
														{
															OFFSET -0.002833 0.028482 0.004645
														}
													}
												}
											}
										}
										JOINT l_carpometacarpal_3
										{
											OFFSET 0.007362 -0.014500 0.006059
											CHANNELS 6 Xposition Yposition Zposition Xrotation Yrotation Zrotation
											JOINT l_metacarpophalangeal_3
											{
												OFFSET 0.022043 -0.068891 -0.007548
												CHANNELS 6 Xposition Yposition Zposition Xrotation Yrotation Zrotation
												JOINT l_carpal_proximal_interphalangeal_3
												{
													OFFSET 0.013052 -0.041741 -0.004579
													CHANNELS 6 Xposition Yposition Zposition Xrotation Yrotation Zrotation
													JOINT l_carpal_distal_interphalangeal_3
													{
														OFFSET 0.002862 -0.028245 -0.004673
														CHANNELS 6 Xposition Yposition Zposition Xrotation Yrotation Zrotation
														End Site
														{
															OFFSET 0.002017 0.027779 0.007215
														}
													}
												}
											}
										}
										JOINT l_carpometacarpal_4
										{
											OFFSET 0.015400 -0.012427 -0.011325
											CHANNELS 6 Xposition Yposition Zposition Xrotation Yrotation Zrotation
											JOINT l_metacarpophalangeal_4
											{
												OFFSET 0.019573 -0.053169 -0.011471
												CHANNELS 6 Xposition Yposition Zposition Xrotation Yrotation Zrotation
												JOINT l_carpal_proximal_interphalangeal_4
												{
													OFFSET 0.008234 -0.047005 -0.009791
													CHANNELS 6 Xposition Yposition Zposition Xrotation Yrotation Zrotation
													JOINT l_carpal_distal_interphalangeal_4
													{
														OFFSET 0.002707 -0.024045 -0.002764
														CHANNELS 6 Xposition Yposition Zposition Xrotation Yrotation Zrotation
														End Site
														{
															OFFSET 0.002578 0.023705 0.004958
														}
													}
												}
											}
										}
										JOINT l_carpometacarpal_5
										{
											OFFSET 0.008040 -0.010550 -0.027695
											CHANNELS 6 Xposition Yposition Zposition Xrotation Yrotation Zrotation
											JOINT l_metacarpophalangeal_5
											{
												OFFSET 0.023517 -0.052481 -0.015934
												CHANNELS 6 Xposition Yposition Zposition Xrotation Yrotation Zrotation
												JOINT l_carpal_proximal_interphalangeal_5
												{
													OFFSET 0.009304 -0.030077 -0.009949
													CHANNELS 6 Xposition Yposition Zposition Xrotation Yrotation Zrotation
													JOINT l_carpal_distal_interphalangeal_5
													{
														OFFSET 0.003485 -0.015848 -0.005247
														CHANNELS 6 Xposition Yposition Zposition Xrotation Yrotation Zrotation
														End Site
														{
															OFFSET 0.001258 0.016811 0.002576
														}
													}
												}
											}
										}
									}
								}
							}
						}
						JOINT r_sternoclavicular
						{
							OFFSET -0.096195 0.028270 -0.017200
							CHANNELS 6 Xposition Yposition Zposition Xrotation Yrotation Zrotation
							JOINT r_shoulder
							{
								OFFSET -0.159989 0.001710 0.002772
								CHANNELS 6 Xposition Yposition Zposition Xrotation Yrotation Zrotation
								JOINT r_elbow
								{
									OFFSET -0.010665 -0.230144 -0.039813
									CHANNELS 6 Xposition Yposition Zposition Xrotation Yrotation Zrotation
									JOINT r_radiocarpal
									{
										OFFSET -0.054330 -0.248739 0.028601
										CHANNELS 6 Xposition Yposition Zposition Xrotation Yrotation Zrotation
										JOINT r_carpometacarpal_1
										{
											OFFSET 0.008889 -0.027743 0.023143
											CHANNELS 6 Xposition Yposition Zposition Xrotation Yrotation Zrotation
											JOINT r_metacarpophalangeal_1
											{
												OFFSET 0.010172 -0.031970 0.008696
												CHANNELS 6 Xposition Yposition Zposition Xrotation Yrotation Zrotation
												JOINT r_carpal_interphalangeal_1
												{
													OFFSET 0.002659 -0.041023 0.008535
													CHANNELS 6 Xposition Yposition Zposition Xrotation Yrotation Zrotation
													End Site
													{
														OFFSET -0.003012 0.038574 -0.016303
													}
												}
											}
										}
										JOINT r_carpometacarpal_2
										{
											OFFSET -0.003388 -0.028277 0.019600
											CHANNELS 6 Xposition Yposition Zposition Xrotation Yrotation Zrotation
											JOINT r_metacarpophalangeal_2
											{
												OFFSET -0.022330 -0.076947 -0.001850
												CHANNELS 6 Xposition Yposition Zposition Xrotation Yrotation Zrotation
												JOINT r_carpal_proximal_interphalangeal_2
												{
													OFFSET -0.008829 -0.037421 -0.004348
													CHANNELS 6 Xposition Yposition Zposition Xrotation Yrotation Zrotation
													JOINT r_carpal_distal_interphalangeal_2
													{
														OFFSET -0.001440 -0.023583 -0.003307
														CHANNELS 6 Xposition Yposition Zposition Xrotation Yrotation Zrotation
														End Site
														{
															OFFSET 0.010013 0.021560 -0.002015
														}
													}
												}
											}
										}
										JOINT r_carpometacarpal_3
										{
											OFFSET -0.009877 -0.020614 0.006366
											CHANNELS 6 Xposition Yposition Zposition Xrotation Yrotation Zrotation
											JOINT r_metacarpophalangeal_3
											{
												OFFSET -0.023218 -0.078812 -0.013273
												CHANNELS 6 Xposition Yposition Zposition Xrotation Yrotation Zrotation
												JOINT r_carpal_proximal_interphalangeal_3
												{
													OFFSET -0.009700 -0.042696 -0.007136
													CHANNELS 6 Xposition Yposition Zposition Xrotation Yrotation Zrotation
													JOINT r_carpal_distal_interphalangeal_3
													{
														OFFSET -0.006985 -0.028920 -0.005242
														CHANNELS 6 Xposition Yposition Zposition Xrotation Yrotation Zrotation
														End Site
														{
															OFFSET 0.009091 0.028782 0.001268
														}
													}
												}
											}
										}
										JOINT r_carpometacarpal_4
										{
											OFFSET -0.013387 -0.022442 -0.009387
											CHANNELS 6 Xposition Yposition Zposition Xrotation Yrotation Zrotation
											JOINT r_metacarpophalangeal_4
											{
												OFFSET -0.020248 -0.067890 -0.015967
												CHANNELS 6 Xposition Yposition Zposition Xrotation Yrotation Zrotation
												JOINT r_carpal_proximal_interphalangeal_4
												{
													OFFSET -0.011446 -0.041622 -0.012180
													CHANNELS 6 Xposition Yposition Zposition Xrotation Yrotation Zrotation
													JOINT r_carpal_distal_interphalangeal_4
													{
														OFFSET -0.007187 -0.021920 -0.004331
														CHANNELS 6 Xposition Yposition Zposition Xrotation Yrotation Zrotation
														End Site
														{
															OFFSET 0.005836 0.022638 0.002086
														}
													}
												}
											}
										}
										JOINT r_carpometacarpal_5
										{
											OFFSET -0.011658 -0.034351 -0.037834
											CHANNELS 6 Xposition Yposition Zposition Xrotation Yrotation Zrotation
											JOINT r_metacarpophalangeal_5
											{
												OFFSET -0.019906 -0.050607 -0.012060
												CHANNELS 6 Xposition Yposition Zposition Xrotation Yrotation Zrotation
												JOINT r_carpal_proximal_interphalangeal_5
												{
													OFFSET -0.004784 -0.018698 -0.005405
													CHANNELS 6 Xposition Yposition Zposition Xrotation Yrotation Zrotation
													JOINT r_carpal_distal_interphalangeal_5
													{
														OFFSET -0.006039 -0.020911 -0.006425
														CHANNELS 6 Xposition Yposition Zposition Xrotation Yrotation Zrotation
														End Site
														{
															OFFSET 0.006467 0.021671 0.001894
														}
													}
												}
											}
										}
									}
								}
							}
						}
					}
				}
			}
		}
	}
}
MOTION
Frames: 3
Frame Time: 0.040000
0.000000 0.972412 -0.000000 0.000018 0.000000 -0.000284 0.126594 0.002634 0.000175 0.000001 -0.000003 0.000000 -0.000561 -0.414592 -0.070925 -0.000036 0.000010 -0.000032 -0.004513 -0.489355 -0.009090 0.000002 -0.000000 0.000000 0.018934 -0.027418 0.102540 0.000017 -0.000007 -0.000003 0.014593 -0.012395 0.067201 0.000003 -0.000009 -0.000006 -0.108775 0.005424 0.001188 -0.000002 0.000011 -0.000003 -0.027330 -0.401027 -0.031165 -0.000001 -0.000008 0.000003 -0.020725 -0.483416 -0.020023 0.000003 0.000003 0.000002 -0.017086 -0.051202 0.081728 -0.000009 0.000000 -0.000002 -0.012977 -0.012548 0.108326 -0.000003 0.000008 0.000000 0.001334 1.079675 -0.005744 -0.000001 0.000011 -0.000002 0.000045 0.089023 -0.004977 0.000018 0.000032 -0.000005 0.000601 0.088396 -0.004935 0.000026 0.000005 0.000014 0.000627 0.088485 -0.000769 0.000095 -0.000045 0.000082 -0.000968 0.091389 -0.011976 0.000003 0.000002 0.000005 -0.001250 0.114398 -0.028139 -0.000000 0.000003 0.000000 -0.002190 0.068824 0.002309 -0.000004 -0.000032 0.000016 0.000063 0.201168 0.012987 -0.000072 0.000122 0.000103 0.090029 0.021834 -0.023574 0.000000 0.000001 0.000001 0.169796 -0.011967 0.000593 0.000020 -0.000025 0.000027 0.019196 -0.242157 -0.026832 0.000006 0.000016 0.000029 0.040054 -0.238662 0.017463 0.000005 -0.000002 0.000006 -0.007333 -0.009378 0.025565 0.000009 0.000005 -0.000001 -0.016236 -0.026544 0.013427 0.000006 -0.000006 0.000006 -0.001591 -0.037644 0.007952 -0.000040 -0.000012 0.000018 0.002204 -0.018555 0.018525 -0.000003 0.000002 -0.000000 0.018688 -0.056911 0.006086 0.000001 0.000003 0.000001 0.006680 -0.041879 -0.005096 -0.000003 -0.000003 -0.000010 0.003517 -0.028563 -0.003551 0.000002 0.000007 -0.000004 0.007362 -0.014500 0.006059 0.000008 0.000009 0.000004 0.022043 -0.068891 -0.007548 0.000005 -0.000002 0.000001 0.013052 -0.041741 -0.004579 0.000072 -0.000013 0.000050 0.002862 -0.028245 -0.004673 -0.000001 0.000000 -0.000000 0.015400 -0.012427 -0.011325 -0.000009 -0.000003 -0.000004 0.019573 -0.053169 -0.011471 -0.000003 0.000000 -0.000000 0.008234 -0.047005 -0.009791 0.000019 0.000027 -0.000009 0.002707 -0.024045 -0.002764 0.000022 0.000004 -0.000021 0.008040 -0.010550 -0.027695 0.000003 -0.000002 0.000000 0.023518 -0.052481 -0.015934 -0.000003 0.000000 0.000007 0.009304 -0.030077 -0.009949 -0.000027 -0.000029 0.000058 0.003485 -0.015848 -0.005247 0.000026 -0.000006 0.000012 -0.096195 0.028270 -0.017200 0.000005 0.000007 0.000012 -0.159989 0.001710 0.002771 0.000041 -0.000020 -0.000002 -0.010665 -0.230144 -0.039813 -0.000001 -0.000001 0.000000 -0.054330 -0.248739 0.028601 -0.000002 0.000006 -0.000003 0.008889 -0.027743 0.023143 0.000004 -0.000002 -0.000000 0.010172 -0.031970 0.008696 0.000033 0.000030 -0.000021 0.002659 -0.041023 0.008535 -0.000001 -0.000023 0.000015 -0.003388 -0.028277 0.019600 0.000001 0.000004 0.000001 -0.022330 -0.076947 -0.001849 -0.000003 -0.000008 -0.000001 -0.008829 -0.037421 -0.004348 0.000004 0.000017 -0.000003 -0.001440 -0.023583 -0.003307 -0.000007 -0.000005 -0.000003 -0.009878 -0.020614 0.006366 0.000002 0.000006 -0.000001 -0.023218 -0.078812 -0.013273 0.000004 0.000003 0.000003 -0.009700 -0.042696 -0.007136 -0.000005 -0.000006 -0.000005 -0.006985 -0.028920 -0.005242 0.000004 0.000005 0.000007 -0.013387 -0.022442 -0.009387 0.000000 0.000002 0.000000 -0.020249 -0.067890 -0.015967 0.000043 -0.000020 0.000090 -0.011446 -0.041622 -0.012180 -0.000006 0.000003 0.000008 -0.007187 -0.021920 -0.004331 0.000008 0.000000 -0.000028 -0.011658 -0.034351 -0.037834 0.000004 0.000005 -0.000000 -0.019906 -0.050607 -0.012060 -0.000010 0.000003 -0.000003 -0.004784 -0.018698 -0.005405 0.000003 0.000001 0.000001 -0.006039 -0.020911 -0.006425 -0.000013 0.000008 -0.000009 
-0.000000 0.972412 0.000000 -2.825679 0.037281 0.000935 0.126594 0.002634 0.000175 0.000001 -0.000003 0.000000 -0.000561 -0.414592 -0.070925 5.420850 -0.330573 0.196437 -0.004513 -0.489355 -0.009090 -1.688586 -0.184532 0.430312 0.018934 -0.027418 0.102540 0.000016 -0.000008 -0.000004 0.014593 -0.012396 0.067201 0.000002 -0.000010 -0.000005 -0.108775 0.005424 0.001188 -0.000002 0.000011 -0.000003 -0.027330 -0.401027 -0.031165 4.992253 -0.035465 0.264349 -0.020725 -0.483416 -0.020023 -1.418213 -0.519623 1.203185 -0.017086 -0.051202 0.081728 -0.000006 0.000002 -0.000003 -0.012977 -0.012548 0.108326 -0.000003 0.000008 0.000000 0.001334 1.079675 -0.005744 0.211187 -0.012602 -0.049956 0.000045 0.089023 -0.004977 0.000018 0.000031 -0.000005 0.000601 0.088396 -0.004935 0.974050 -0.011220 -0.089498 0.000627 0.088486 -0.000769 1.080357 -0.039720 -0.111960 -0.000968 0.091389 -0.011976 0.000001 0.000002 0.000005 -0.001250 0.114398 -0.028139 -0.648408 -0.061492 -0.033287 -0.002190 0.068824 0.002309 -0.328201 -0.005921 0.033569 0.000063 0.201168 0.012987 -0.000072 0.000122 0.000103 0.090029 0.021834 -0.023574 0.004591 -2.463847 -0.638525 0.169796 -0.011967 0.000593 -1.855899 -0.004090 1.570322 0.019196 -0.242157 -0.026832 -1.709984 -3.276821 0.345070 0.040054 -0.238662 0.017463 0.000005 0.000003 0.000007 -0.007333 -0.009379 0.025565 0.000004 0.000004 -0.000005 -0.016236 -0.026544 0.013427 0.000011 -0.000008 0.000004 -0.001591 -0.037644 0.007952 -0.000042 -0.000011 0.000017 0.002204 -0.018555 0.018525 -0.000003 -0.000002 -0.000001 0.018688 -0.056911 0.006086 0.116651 0.136788 -0.627012 0.006680 -0.041879 -0.005096 1.438822 0.517915 -3.250919 0.003517 -0.028563 -0.003551 0.000002 -0.000001 -0.000003 0.007362 -0.014501 0.006059 0.000006 0.000006 0.000003 0.022043 -0.068891 -0.007548 0.800229 0.203699 -1.775054 0.013052 -0.041741 -0.004579 1.445268 0.532674 -3.125068 0.002862 -0.028245 -0.004673 0.000003 -0.000001 -0.000000 0.015400 -0.012427 -0.011325 -0.000010 -0.000007 -0.000005 0.019573 -0.053168 -0.011471 -0.019022 0.325502 -0.002011 0.008234 -0.047005 -0.009791 0.985437 0.256703 -3.780056 0.002707 -0.024045 -0.002764 0.000023 0.000007 -0.000022 0.008040 -0.010550 -0.027695 -0.000000 -0.000005 -0.000001 0.023518 -0.052481 -0.015934 0.670692 -0.161784 -2.185565 0.009304 -0.030077 -0.009949 0.806860 0.033481 -2.250858 0.003485 -0.015848 -0.005247 0.000024 -0.000008 0.000013 -0.096195 0.028270 -0.017200 -0.034158 2.715436 -0.091296 -0.159989 0.001709 0.002771 -3.015837 -1.360015 0.092808 -0.010665 -0.230143 -0.039813 -2.750439 0.599156 0.263502 -0.054330 -0.248739 0.028601 0.000004 0.000004 -0.000003 0.008889 -0.027743 0.023143 0.000004 -0.000004 -0.000003 0.010172 -0.031970 0.008695 -0.004570 1.822011 -0.712561 0.002659 -0.041023 0.008535 -0.121980 1.698343 -0.715726 -0.003388 -0.028277 0.019601 0.000004 0.000005 0.000002 -0.022330 -0.076947 -0.001849 0.641191 -0.231476 1.950649 -0.008829 -0.037421 -0.004348 1.114525 -0.352133 1.705956 -0.001440 -0.023583 -0.003307 -0.000006 -0.000005 -0.000006 -0.009878 -0.020613 0.006366 0.000003 0.000008 -0.000003 -0.023218 -0.078812 -0.013273 -0.159357 -0.498027 0.559434 -0.009700 -0.042696 -0.007136 0.250103 -0.148262 1.129398 -0.006985 -0.028920 -0.005242 0.000004 0.000004 0.000007 -0.013387 -0.022442 -0.009387 0.000003 0.000006 -0.000000 -0.020248 -0.067890 -0.015967 0.313081 -0.065564 1.039025 -0.011446 -0.041622 -0.012180 -0.000003 0.000003 0.000007 -0.007187 -0.021920 -0.004331 0.000010 0.000001 -0.000022 -0.011658 -0.034351 -0.037834 0.000005 0.000008 -0.000002 -0.019906 -0.050608 -0.012060 0.386786 -0.701542 1.667424 -0.004784 -0.018698 -0.005405 0.335442 -0.351650 1.093418 -0.006039 -0.020911 -0.006425 -0.000014 0.000007 -0.000011 
-0.000000 0.972412 0.000000 -8.460046 0.111253 0.008307 0.126594 0.002634 0.000175 0.000001 -0.000003 0.000000 -0.000561 -0.414592 -0.070925 16.235314 -0.927214 0.676784 -0.004512 -0.489355 -0.009090 -5.048656 -0.589457 1.291385 0.018934 -0.027418 0.102540 0.000016 -0.000008 -0.000003 0.014593 -0.012396 0.067201 0.000001 -0.000010 -0.000006 -0.108775 0.005424 0.001188 -0.000001 0.000011 -0.000003 -0.027330 -0.401027 -0.031165 14.947799 -0.037064 0.795743 -0.020725 -0.483416 -0.020023 -4.198607 -1.572948 3.611782 -0.017086 -0.051202 0.081728 -0.000007 0.000002 -0.000002 -0.012977 -0.012548 0.108326 -0.000004 0.000008 0.000000 0.001334 1.079675 -0.005744 0.632242 -0.038212 -0.149443 0.000045 0.089023 -0.004977 0.000019 0.000031 -0.000006 0.000601 0.088396 -0.004935 2.916188 -0.038126 -0.267319 0.000627 0.088485 -0.000769 3.234314 -0.125239 -0.332747 -0.000968 0.091389 -0.011976 0.000002 0.000003 0.000005 -0.001250 0.114398 -0.028139 -1.941409 -0.182972 -0.101734 -0.002190 0.068824 0.002309 -0.994088 -0.018544 0.101584 0.000063 0.201169 0.012987 -0.000073 0.000122 0.000103 0.090029 0.021834 -0.023574 -0.164838 -7.376334 -1.898436 0.169796 -0.011967 0.000593 -5.597142 -0.303115 4.701192 0.019196 -0.242157 -0.026832 -5.160305 -9.828909 0.420844 0.040054 -0.238662 0.017463 0.000005 0.000002 0.000005 -0.007333 -0.009378 0.025565 0.000008 0.000003 -0.000003 -0.016236 -0.026544 0.013427 0.000012 -0.000009 0.000009 -0.001591 -0.037644 0.007952 -0.000043 -0.000018 0.000015 0.002204 -0.018555 0.018525 -0.000003 -0.000006 -0.000002 0.018688 -0.056911 0.006086 0.353692 0.405654 -1.878121 0.006680 -0.041880 -0.005096 4.384562 1.302452 -9.768365 0.003517 -0.028563 -0.003551 0.000003 0.000003 -0.000001 0.007362 -0.014500 0.006059 0.000009 0.000006 0.000004 0.022043 -0.068890 -0.007548 2.412855 0.535346 -5.322215 0.013052 -0.041741 -0.004579 4.403939 1.355127 -9.393066 0.002862 -0.028245 -0.004673 -0.000001 0.000004 0.000004 0.015400 -0.012427 -0.011325 -0.000006 -0.000009 -0.000004 0.019574 -0.053168 -0.011471 -0.056964 0.974552 -0.005689 0.008234 -0.047005 -0.009791 2.990401 0.572045 -11.328480 0.002707 -0.024045 -0.002764 0.000021 0.000006 -0.000021 0.008040 -0.010550 -0.027695 0.000004 -0.000003 0.000000 0.023518 -0.052481 -0.015934 2.009237 -0.565158 -6.530021 0.009304 -0.030077 -0.009949 2.416676 0.005708 -6.739528 0.003485 -0.015848 -0.005247 0.000026 -0.000011 0.000011 -0.096195 0.028270 -0.017200 -0.089735 8.130173 -0.269794 -0.159989 0.001709 0.002772 -9.056879 -4.034457 -0.120555 -0.010665 -0.230144 -0.039813 -8.244775 1.752710 0.873389 -0.054330 -0.248739 0.028601 -0.000000 0.000004 -0.000003 0.008889 -0.027743 0.023143 0.000001 -0.000004 -0.000003 0.010172 -0.031970 0.008696 0.054225 5.454557 -2.137649 0.002659 -0.041023 0.008535 -0.302296 5.088702 -2.136127 -0.003388 -0.028277 0.019601 0.000003 0.000002 0.000001 -0.022330 -0.076947 -0.001849 1.941424 -0.627185 5.847519 -0.008829 -0.037421 -0.004348 3.365918 -0.954191 5.126794 -0.001440 -0.023583 -0.003307 -0.000009 -0.000005 -0.000001 -0.009878 -0.020614 0.006366 0.000002 0.000005 -0.000004 -0.023218 -0.078812 -0.013273 -0.476233 -1.490662 1.694833 -0.009700 -0.042696 -0.007136 0.765945 -0.433572 3.421326 -0.006985 -0.028920 -0.005242 0.000005 0.000006 0.000004 -0.013387 -0.022442 -0.009387 0.000001 0.000002 -0.000000 -0.020249 -0.067890 -0.015967 0.940542 -0.179238 3.111751 -0.011446 -0.041622 -0.012180 -0.000004 0.000003 0.000005 -0.007187 -0.021920 -0.004331 0.000010 -0.000000 -0.000022 -0.011658 -0.034351 -0.037834 0.000006 0.000003 -0.000002 -0.019906 -0.050608 -0.012060 1.218519 -2.065247 5.007734 -0.004784 -0.018699 -0.005405 1.024101 -1.033373 3.279948 -0.006039 -0.020911 -0.006425 -0.000014 0.000007 -0.000012 
